<svg width="465" height="324" viewBox="0 0 465 324" fill="none" xmlns="http://www.w3.org/2000/svg">
<g clip-path="url(#clip0)">
<path d="M92.6482 323.525C143.816 323.525 185.296 320.374 185.296 316.488C185.296 312.602 143.816 309.452 92.6482 309.452C41.48 309.452 0 312.602 0 316.488C0 320.374 41.48 323.525 92.6482 323.525Z" fill="#E6E6E6"/>
<path d="M70.8185 71.7845C86.9421 64.9266 107.024 69.2717 126.637 72.2873C126.819 68.6354 129.031 64.1907 126.714 61.6429C123.899 58.5475 124.158 55.2951 125.852 52.024C130.184 43.6593 123.977 34.7588 117.711 27.3581C116.298 25.6938 114.513 24.3861 112.5 23.5413C110.487 22.6964 108.304 22.3383 106.126 22.4959L94.5175 23.3251C91.6926 23.5269 88.9967 24.5866 86.7906 26.3624C84.5844 28.1382 82.9732 30.5455 82.1725 33.262C79.4005 37.032 77.9169 40.7915 78.851 44.5314C74.699 47.3688 74.0015 50.7938 75.8672 54.6549C77.4492 57.086 77.4324 59.4525 75.7952 61.7534C73.6451 64.687 71.9983 67.958 70.9223 71.4323L70.8185 71.7845Z" fill="#2F2E41"/>
<path d="M453.981 279.682H125.363C122.441 279.682 119.638 278.521 117.572 276.455C115.505 274.388 114.344 271.585 114.344 268.663C233.468 254.819 350.354 254.819 465 268.663C465 271.585 463.839 274.388 461.773 276.455C459.706 278.521 456.904 279.682 453.981 279.682Z" fill="#2F2E41"/>
<path d="M465 269.311L114.344 268.663L154.984 200.282L155.178 199.958V49.2539C155.178 47.4246 155.539 45.6133 156.238 43.9233C156.938 42.2333 157.964 40.6977 159.258 39.4042C160.551 38.1108 162.087 37.0848 163.777 36.3848C165.467 35.6849 167.278 35.3247 169.107 35.3249H408.292C410.122 35.3247 411.933 35.6849 413.623 36.3848C415.313 37.0848 416.848 38.1108 418.142 39.4042C419.435 40.6977 420.461 42.2333 421.161 43.9233C421.861 45.6133 422.221 47.4246 422.221 49.2539V200.995L465 269.311Z" fill="#4196EB"/>
<path d="M168.79 45.0473C167.587 45.0486 166.434 45.5271 165.583 46.3777C164.733 47.2282 164.254 48.3815 164.253 49.5844V186.995C164.254 188.198 164.733 189.351 165.583 190.201C166.434 191.052 167.587 191.531 168.79 191.532H410.554C411.757 191.53 412.91 191.052 413.761 190.201C414.612 189.351 415.09 188.198 415.092 186.995V49.5844C415.09 48.3815 414.612 47.2283 413.761 46.3777C412.911 45.5271 411.757 45.0487 410.554 45.0473H168.79Z" fill="white"/>
<path d="M169.803 209.68C169.431 209.681 169.067 209.788 168.754 209.989C168.441 210.189 168.192 210.475 168.036 210.812L155.514 238.035C155.378 238.331 155.318 238.657 155.341 238.982C155.363 239.308 155.467 239.622 155.643 239.897C155.819 240.171 156.061 240.397 156.347 240.554C156.633 240.71 156.954 240.792 157.28 240.792H420.619C420.951 240.792 421.277 240.708 421.566 240.546C421.856 240.385 422.099 240.152 422.273 239.87C422.448 239.588 422.547 239.266 422.562 238.935C422.576 238.604 422.506 238.275 422.358 237.978L408.747 210.755C408.586 210.432 408.338 210.159 408.031 209.969C407.724 209.78 407.369 209.679 407.008 209.68H169.803Z" fill="white"/>
<path d="M288.7 42.7787C290.311 42.7787 291.617 41.4729 291.617 39.862C291.617 38.2511 290.311 36.9453 288.7 36.9453C287.089 36.9453 285.783 38.2511 285.783 39.862C285.783 41.4729 287.089 42.7787 288.7 42.7787Z" fill="white"/>
<path d="M262.816 245.978C262.388 245.978 261.973 246.119 261.634 246.379C261.294 246.639 261.05 247.004 260.938 247.416L257.797 259.083C257.72 259.372 257.709 259.674 257.767 259.967C257.825 260.259 257.95 260.535 258.131 260.772C258.313 261.009 258.546 261.201 258.814 261.333C259.082 261.465 259.376 261.534 259.675 261.534H319.412C319.722 261.534 320.027 261.46 320.303 261.317C320.578 261.175 320.816 260.969 320.995 260.717C321.175 260.464 321.292 260.173 321.336 259.866C321.38 259.559 321.35 259.246 321.249 258.953L317.21 247.286C317.078 246.904 316.83 246.573 316.5 246.338C316.171 246.104 315.777 245.978 315.373 245.978H262.816Z" fill="white"/>
<path d="M422.221 197.69V200.282H154.984L155.185 199.958V197.69H422.221Z" fill="#2F2E41"/>
<path d="M414.767 90.7427C439.825 90.7427 460.139 70.4293 460.139 45.3714C460.139 20.3135 439.825 0 414.767 0C389.71 0 369.396 20.3135 369.396 45.3714C369.396 70.4293 389.71 90.7427 414.767 90.7427Z" fill="#E87D0B"/>
<path d="M433.564 65.1403H395.971C395.283 65.1396 394.624 64.8663 394.138 64.3802C393.652 63.8941 393.379 63.2351 393.378 62.5477V39.862C393.379 39.1746 393.652 38.5156 394.138 38.0295C394.624 37.5435 395.283 37.2701 395.971 37.2693H433.564C434.252 37.2701 434.911 37.5435 435.397 38.0295C435.883 38.5156 436.156 39.1746 436.157 39.862V62.5477C436.156 63.2351 435.883 63.8941 435.397 64.3802C434.911 64.8663 434.252 65.1396 433.564 65.1403ZM395.971 39.862V62.5477H433.566L433.564 39.862L395.971 39.862Z" fill="white"/>
<path d="M426.435 39.862H403.101V29.4914C403.101 21.9799 408.007 16.5281 414.768 16.5281C421.528 16.5281 426.434 21.9799 426.434 29.4914L426.435 39.862ZM405.693 37.2693H423.842V29.4914C423.842 23.3854 420.11 19.1208 414.768 19.1208C409.425 19.1208 405.693 23.3854 405.693 29.4914L405.693 37.2693Z" fill="white"/>
<path d="M414.767 53.1493C416.199 53.1493 417.36 51.9885 417.36 50.5567C417.36 49.1248 416.199 47.964 414.767 47.964C413.336 47.964 412.175 49.1248 412.175 50.5567C412.175 51.9885 413.336 53.1493 414.767 53.1493Z" fill="white"/>
<path d="M383.094 144.924H196.25C195.333 144.923 194.453 144.558 193.805 143.909C193.156 143.26 192.791 142.381 192.79 141.464V95.1155C192.791 94.1982 193.156 93.3188 193.805 92.6701C194.453 92.0214 195.333 91.6566 196.25 91.6555H383.094C384.012 91.6566 384.891 92.0214 385.54 92.6701C386.188 93.3188 386.553 94.1982 386.554 95.1155V141.464C386.553 142.381 386.188 143.26 385.54 143.909C384.891 144.558 384.012 144.923 383.094 144.924ZM196.25 93.0395C195.7 93.0401 195.172 93.2591 194.783 93.6483C194.393 94.0375 194.175 94.5651 194.174 95.1156V141.464C194.175 142.014 194.393 142.542 194.783 142.931C195.172 143.32 195.7 143.539 196.25 143.54H383.094C383.645 143.539 384.172 143.32 384.562 142.931C384.951 142.542 385.17 142.014 385.17 141.464V95.1155C385.17 94.5651 384.951 94.0374 384.562 93.6482C384.172 93.259 383.645 93.0401 383.094 93.0395L196.25 93.0395Z" fill="#E6E6E6"/>
<path d="M225.282 130.606C233.066 130.606 239.376 124.295 239.376 116.511C239.376 108.727 233.066 102.417 225.282 102.417C217.498 102.417 211.187 108.727 211.187 116.511C211.187 124.295 217.498 130.606 225.282 130.606Z" fill="#E6E6E6"/>
<path d="M257.833 107.115C257.525 107.114 257.219 107.175 256.933 107.293C256.648 107.41 256.389 107.583 256.17 107.802C255.951 108.02 255.778 108.279 255.66 108.564C255.542 108.849 255.481 109.155 255.481 109.464C255.481 109.773 255.542 110.079 255.66 110.364C255.778 110.649 255.951 110.908 256.17 111.126C256.389 111.345 256.648 111.517 256.933 111.635C257.219 111.753 257.525 111.814 257.833 111.813H368.576C369.199 111.813 369.796 111.566 370.237 111.125C370.677 110.684 370.925 110.087 370.925 109.464C370.925 108.841 370.677 108.243 370.237 107.803C369.796 107.362 369.199 107.115 368.576 107.115H257.833Z" fill="#E6E6E6"/>
<path d="M257.833 121.209C257.21 121.209 256.613 121.457 256.172 121.897C255.732 122.338 255.484 122.935 255.484 123.558C255.484 124.181 255.732 124.779 256.172 125.22C256.613 125.66 257.21 125.908 257.833 125.908H305.486C306.109 125.908 306.707 125.66 307.147 125.22C307.588 124.779 307.835 124.181 307.835 123.558C307.835 122.935 307.588 122.338 307.147 121.897C306.707 121.457 306.109 121.209 305.486 121.209H257.833Z" fill="#E6E6E6"/>
<path d="M154.524 122.16L119.985 140.523L119.547 125.22C130.821 123.338 141.546 120.062 151.464 114.727L155.076 105.802C155.47 104.83 156.11 103.976 156.933 103.326C157.756 102.675 158.734 102.25 159.771 102.092C160.808 101.933 161.869 102.047 162.848 102.423C163.828 102.798 164.693 103.421 165.359 104.232C166.334 105.418 166.821 106.93 166.722 108.462C166.623 109.994 165.945 111.431 164.827 112.482L154.524 122.16Z" fill="#FFB8B8"/>
<path d="M70.1301 228.18C69.8781 227.256 69.8246 226.289 69.9731 225.343C70.1216 224.396 70.4687 223.492 70.9916 222.69L78.579 211.046C80.3736 208.291 83.1272 206.302 86.3057 205.464C89.4842 204.625 92.8608 204.997 95.7805 206.507C92.5917 211.935 93.0363 216.697 96.8817 220.835C90.9121 223.749 85.3947 227.51 80.5006 232.002C79.6071 232.611 78.581 232.998 77.5078 233.131C76.4346 233.263 75.3453 233.137 74.3307 232.763C73.3161 232.389 72.4055 231.778 71.6748 230.981C70.9442 230.184 70.4145 229.223 70.1301 228.18Z" fill="#2F2E41"/>
<path d="M156.097 212.955C154.949 214.869 153.329 216.455 151.391 217.562C149.453 218.669 147.263 219.259 145.032 219.276L94.6264 219.658L92.4404 206.978L114.738 200.42L95.9381 185.992L116.487 161.946L153.81 196.732C155.991 198.766 157.409 201.486 157.825 204.439C158.242 207.392 157.632 210.398 156.097 212.955Z" fill="#2F2E41"/>
<path d="M86.7566 299.667H74.9519C64.353 227.016 53.5644 154.161 85.445 126.969L123.045 133.09L118.236 165.006L97.2497 189.053L86.7566 299.667Z" fill="#2F2E41"/>
<path d="M97.1335 316.125C96.2094 316.377 95.2424 316.43 94.2961 316.282C93.3498 316.134 92.4457 315.787 91.6431 315.264L78.8257 313.541C76.0714 311.746 74.082 308.993 73.2432 305.814C72.4045 302.636 72.7763 299.259 74.2865 296.34C79.7145 299.528 84.4761 299.083 88.6139 295.238C91.5375 301.141 96.3546 300.781 100.955 305.754C101.564 306.648 101.951 307.674 102.083 308.747C102.216 309.82 102.09 310.909 101.716 311.924C101.342 312.939 100.731 313.849 99.934 314.58C99.1369 315.311 98.1767 315.84 97.1335 316.125Z" fill="#2F2E41"/>
<path d="M114.738 78.4386L92.8775 73.1921C96.5082 65.7604 96.8072 57.491 95.0636 48.7083L109.929 48.2711C110.395 59.1927 111.804 69.3962 114.738 78.4386Z" fill="#FFB8B8"/>
<path d="M120.746 146.254C104.832 157.098 93.5884 146.625 85.0078 130.467C86.2001 120.579 84.2695 108.747 80.694 95.8899C79.1038 90.2192 79.6975 84.1583 82.3578 78.9039C85.0181 73.6494 89.5517 69.5833 95.0636 67.5084L113.864 75.3782C129.827 88.3902 132.969 102.485 126.98 117.35L120.746 146.254Z" fill="#E87D0B"/>
<path d="M74.9519 89.3689L57.4635 98.5503L88.5054 116.913L92.8247 127.567C93.113 128.278 93.2535 129.041 93.2375 129.808C93.2215 130.575 93.0495 131.331 92.7318 132.03C92.4142 132.728 91.9576 133.355 91.39 133.871C90.8223 134.387 90.1554 134.782 89.43 135.033C88.6054 135.317 87.7262 135.406 86.8612 135.294C85.9962 135.182 85.1689 134.871 84.4441 134.386C83.7193 133.901 83.1167 133.254 82.6834 132.497C82.2502 131.74 81.9981 130.893 81.9469 130.022L81.5101 122.597L42.0561 109.577C40.7268 109.138 39.5148 108.403 38.5118 107.427C37.5088 106.45 36.7412 105.258 36.267 103.941C35.5759 102.021 35.5407 99.9265 36.167 97.9846C36.7933 96.0426 38.0457 94.3631 39.7282 93.2088L71.4542 71.4433L74.9519 89.3689Z" fill="#FFB8B8"/>
<path d="M92.4403 91.1177C85.1466 87.9213 78.5142 91.3936 70.1426 94.1782L68.831 71.006C77.1436 66.5755 85.0691 65.381 92.4404 68.82L92.4403 91.1177Z" fill="#E87D0B"/>
<path d="M101.165 59.7491C108.874 59.7491 115.122 53.5003 115.122 45.792C115.122 38.0837 108.874 31.8349 101.165 31.8349C93.457 31.8349 87.2082 38.0837 87.2082 45.792C87.2082 53.5003 93.457 59.7491 101.165 59.7491Z" fill="#FFB8B8"/>
<path d="M117.863 44.0309C104.044 45.3843 93.514 43.1243 86.7844 36.6894V31.5071H116.69L117.863 44.0309Z" fill="#2F2E41"/>
</g>
<defs>
<clipPath id="clip0">
<rect width="465" height="323.525" fill="white"/>
</clipPath>
</defs>
</svg>
